<svg width="54" height="37" viewBox="0 0 54 37" fill="none" xmlns="http://www.w3.org/2000/svg">
<path d="M23.4894 26.9285C23.4352 26.9826 23.2179 27.0912 23.1638 27.0912C22.5126 27.3627 21.807 27.5796 20.9931 27.6882C20.8303 27.6882 20.2874 27.7424 20.2333 27.7424C19.8532 27.7424 19.5277 28.068 19.5822 28.448C19.5822 28.8281 19.9077 29.0992 20.2878 29.0992C20.5592 29.0992 21.0476 29.045 21.2104 29.045C22.1871 28.9364 23.0014 28.665 23.7612 28.3394C23.8153 28.3394 24.0867 28.1766 24.1413 28.1225C24.4668 27.9597 24.6296 27.5255 24.4127 27.1999C24.2495 26.8743 23.8153 26.7657 23.4894 26.9285L23.4894 26.9285Z" fill="#3E2F5B"/>
<path d="M27.3973 22.0983C27.3431 22.1524 27.1804 22.4238 27.1804 22.4238C26.9634 22.7494 26.8003 23.075 26.5833 23.3464C26.2578 23.8348 25.9863 24.3777 25.6066 24.866C25.6066 24.866 25.4439 25.1375 25.3897 25.1375C25.1728 25.463 25.2269 25.8972 25.4984 26.1142C25.607 26.2228 25.7698 26.2769 25.9326 26.2769C26.1495 26.2769 26.3668 26.1683 26.4755 26.0055C26.5296 25.9514 26.6924 25.6799 26.7469 25.6799C27.127 25.1371 27.4526 24.5946 27.7782 24.0517C27.941 23.7261 28.1583 23.4547 28.321 23.1291C28.321 23.1291 28.4838 22.8577 28.538 22.8035C28.7549 22.478 28.6466 22.0437 28.3752 21.8268C28.0489 21.7182 27.6146 21.8268 27.3973 22.0983L27.3973 22.0983Z" fill="#3E2F5B"/>
<path d="M14.1553 26.6028C14.861 27.4713 15.729 28.1765 16.7061 28.6108C16.7603 28.6108 17.1403 28.8277 17.3573 28.8277C17.6287 28.8277 17.9001 28.6649 18.0084 28.3393C18.1171 27.9593 17.9543 27.5796 17.5742 27.4709C17.5201 27.4709 17.3028 27.3623 17.2486 27.3623C16.4347 27.0367 15.7832 26.4938 15.2407 25.7886C15.2407 25.7886 15.0779 25.5716 15.0237 25.5171C14.8068 25.1916 14.3726 25.137 14.047 25.3543C13.7215 25.5713 13.6669 26.0055 13.8842 26.331C13.938 26.2773 14.1008 26.5483 14.1553 26.6029L14.1553 26.6028Z" fill="#3E2F5B"/>
<path d="M29.6763 19.8731C29.3507 20.09 29.2421 20.4701 29.4048 20.8498C29.5135 21.0667 29.7849 21.1754 30.0018 21.1754C30.1105 21.1754 30.2188 21.1212 30.3274 21.0667C30.3816 21.0126 30.5989 20.9039 30.5989 20.9039C31.0331 20.687 31.5214 20.5783 32.0098 20.4697C32.3899 20.4156 32.7696 20.361 33.1497 20.361H33.5298C33.9099 20.361 34.2355 20.0355 34.2355 19.6554C34.2355 19.2753 33.9099 18.9497 33.5298 18.9497H33.0956C32.6614 18.9497 32.2272 19.0039 31.793 19.0584C31.1418 19.167 30.4904 19.3298 29.9478 19.6013C30.0561 19.7103 29.7847 19.8189 29.6764 19.8731H29.6763Z" fill="#3E2F5B"/>
<path d="M39.4989 22.1525C39.2274 21.6096 38.5222 20.5788 37.1654 19.819C37.1112 19.819 36.8398 19.6562 36.7853 19.6021C36.4597 19.4393 36.0255 19.6021 35.8627 19.9277C35.6999 20.2532 35.8627 20.6874 36.1883 20.8502C36.2424 20.8502 36.4597 21.013 36.5138 21.013C37.5451 21.5559 38.0875 22.3156 38.3048 22.7499C38.3048 22.8041 38.4135 22.9668 38.4135 22.9668C38.5221 23.2383 38.7935 23.4011 39.0646 23.4011C39.1187 23.4011 39.2274 23.4011 39.2815 23.3469C39.6616 23.2383 39.8244 22.8041 39.7158 22.4785C39.6616 22.5326 39.4988 22.2071 39.4988 22.1525L39.4989 22.1525Z" fill="#3E2F5B"/>
<path d="M41.1832 24.1063C40.9117 23.8349 40.4234 23.8894 40.2065 24.215L39.5008 25.0834L38.741 24.3777C38.4696 24.1063 38.0354 24.1608 37.7643 24.4319C37.4929 24.7033 37.5474 25.1375 37.8185 25.4086L38.6324 26.1684L37.8726 27.0909C37.6012 27.3624 37.6557 27.8507 37.9813 28.0676C38.0899 28.1763 38.2527 28.2304 38.4155 28.2304C38.6324 28.2304 38.7956 28.1218 38.9584 27.959L39.664 27.0906L40.5324 27.9045C40.6411 28.0131 40.858 28.0673 41.0208 28.0673C41.2377 28.0673 41.4009 28.0131 41.5637 27.8503C41.8351 27.5789 41.7806 27.1447 41.5095 26.8736L40.587 26.0597L41.3468 25.1371C41.5088 24.8119 41.4547 24.3777 41.1832 24.1063L41.1832 24.1063Z" fill="#3E2F5B"/>
<path d="M14.7515 23.2922C14.7515 22.6952 14.2632 22.2069 13.6662 22.2069H13.015C12.418 22.2069 11.9297 22.6952 11.9297 23.2922C11.9297 23.8892 12.418 24.3775 13.015 24.3775H13.6662C14.2628 24.4317 14.7515 23.9433 14.7515 23.2922Z" fill="#3E2F5B"/>
<path d="M53.0679 34.9607L43.1361 13.1976C42.9733 12.8176 42.6477 12.6006 42.2135 12.6006H31.5219C31.1964 13.2518 30.8163 13.9574 30.4907 14.6086H41.5621L50.6256 34.3636H2.54062L11.604 14.6086H22.6212L21.59 12.6006H10.9527C10.5726 12.6006 10.1929 12.8176 10.0301 13.1976L0.098338 34.9607C-0.0644487 35.2863 -0.0103128 35.6118 0.152473 35.9374C0.31526 36.2088 0.640833 36.3716 0.966397 36.3716H52.1448C52.4704 36.3716 52.796 36.2088 52.9588 35.9374C53.1768 35.6122 53.2313 35.2862 53.0685 34.9607H53.0679Z" fill="#3E2F5B"/>
<path d="M25.8217 16.5625C26.1472 17.1595 27.0156 17.1595 27.2871 16.5625C27.2871 16.5625 30.7605 9.77851 31.5744 8.15026C32.3883 6.57656 32.3883 4.73103 31.5744 3.10316C30.1634 0.335387 26.7984 -0.80442 24.0306 0.606456C21.2628 2.01743 20.1771 5.49074 21.5339 8.15026C22.8911 10.8097 25.8216 16.5625 25.8216 16.5625H25.8217ZM26.5815 2.72316C28.2097 2.72316 29.5119 4.02578 29.5119 5.65365C29.5119 7.28191 28.2093 8.58414 26.5815 8.58414C24.9532 8.58414 23.651 7.28152 23.651 5.65365C23.651 4.02578 24.9533 2.72316 26.5815 2.72316Z" fill="#3E2F5B"/>
</svg>
