<svg width="36" height="38" viewBox="0 0 36 38" fill="none" xmlns="http://www.w3.org/2000/svg">
<path d="M0.699812 37.3673H35.2998C35.6865 37.3673 36 37.0512 36 36.66V21.0043C36 20.6136 35.6865 20.297 35.2998 20.297H34.3805C34.5963 19.6321 34.6729 18.7157 34.2125 17.5852C33.6735 16.2609 32.6345 15.6034 31.7996 15.0751C31.2771 14.7451 30.826 14.4591 30.7059 14.1414C30.6024 13.8682 30.3421 13.6872 30.0521 13.6872C29.7621 13.6872 29.5019 13.8682 29.3984 14.1424C29.2782 14.4596 28.8271 14.7451 28.3052 15.0751C27.4703 15.6034 26.4313 16.2608 25.8922 17.5852C25.4323 18.7151 25.5085 19.6321 25.7243 20.297H24.9841V15.2137C25.5885 14.4833 27.1904 12.0703 25.6823 8.3638C24.6887 5.92231 22.7137 4.67303 21.127 3.66871C19.9742 2.93874 18.9782 2.30882 18.654 1.4516C18.5505 1.17834 18.2903 0.99733 18.0002 0.99733C17.7102 0.99733 17.45 1.17835 17.3465 1.45258C17.0223 2.31031 16.0263 2.94013 14.8735 3.66969C13.2868 4.6739 11.3118 5.92279 10.3182 8.36478C8.81008 12.0713 10.412 14.4843 11.0164 15.2147V20.298H10.1136C10.3295 19.6331 10.4061 18.7167 9.94568 17.5861C9.40665 16.2619 8.36767 15.6044 7.53273 15.0761C7.0103 14.7461 6.55916 14.46 6.43905 14.1424C6.33555 13.8692 6.0753 13.6881 5.78529 13.6881C5.49527 13.6881 5.23504 13.8692 5.13152 14.1434C5.01141 14.4605 4.56027 14.7461 4.03834 15.0761C3.20343 15.6043 2.16447 16.2618 1.62538 17.5861C1.16545 18.7161 1.24162 19.633 1.45742 20.298H0.700149C0.313452 20.298 0 20.6141 0 21.0053V36.661C0.00048834 37.0512 0.313939 37.3673 0.700149 37.3673H0.699812ZM12.4157 15.6483H23.5843V35.9531H22.1518V28.936C22.1518 27.374 21.2998 25.9525 19.9278 25.2244C19.3927 24.9413 18.9723 24.6424 18.6447 24.3115L18.4953 24.16C18.2326 23.8937 17.7668 23.8937 17.5041 24.16L17.3557 24.31C17.0271 24.6419 16.6067 24.9413 16.0712 25.2244C14.6996 25.9524 13.8477 27.3739 13.8477 28.936V35.9531H12.4152L12.4157 15.6483ZM20.7515 35.9531H15.2475V28.936C15.2475 27.9017 15.8124 26.9592 16.7215 26.4772C17.2166 26.2148 17.638 25.9357 17.9998 25.6299C18.3611 25.9357 18.7825 26.2148 19.2776 26.4772C20.1872 26.9591 20.7521 27.9016 20.7521 28.936L20.7515 35.9531ZM27.1865 18.1231C27.5547 17.219 28.3139 16.7391 29.0478 16.2744C29.3964 16.0539 29.7514 15.829 30.0521 15.5592C30.3534 15.829 30.7078 16.0534 31.0564 16.2744C31.7908 16.7385 32.5495 17.2189 32.9177 18.1231C33.3635 19.2185 33.0593 19.9614 32.8503 20.2978L27.2545 20.2973C27.045 19.9619 26.7408 19.2196 27.1866 18.1231L27.1865 18.1231ZM34.5996 21.7113V35.9529H24.9836V21.7113H34.5996ZM11.6125 8.90159C12.4352 6.88032 14.0524 5.85693 15.6161 4.86852C16.5189 4.29736 17.387 3.74741 18.0002 3.03563C18.6134 3.74736 19.4816 4.29731 20.3838 4.86852C21.9477 5.85743 23.5652 6.88095 24.3874 8.90159C25.566 11.7988 24.4294 13.649 23.9704 14.2338H12.0294C11.5699 13.6493 10.4338 11.7983 11.6124 8.90159H11.6125ZM2.91978 18.1229C3.28792 17.2189 4.04714 16.7389 4.78102 16.2743C5.12963 16.0538 5.48458 15.8289 5.78535 15.5591C6.0866 15.8289 6.44107 16.0533 6.78968 16.2743C7.524 16.7384 8.2827 17.2188 8.65092 18.1229C9.09669 19.2184 8.79251 19.9613 8.58354 20.2976H2.98769C2.77872 19.9617 2.47405 19.2194 2.91982 18.1229H2.91978ZM1.40039 21.7112H11.0165V35.9528H1.40039V21.7112Z" fill="#127D87"/>
<path d="M4.06148 24.3493C3.67478 24.3493 3.36133 24.6654 3.36133 25.0566L3.36182 26.9669C3.36182 27.3575 3.67527 27.6741 4.06197 27.6741C4.44866 27.6741 4.76212 27.358 4.76212 26.9669V25.0561C4.76163 24.6654 4.44818 24.3493 4.06148 24.3493L4.06148 24.3493Z" fill="#127D87"/>
<path d="M7.8896 24.3493C7.5029 24.3493 7.18945 24.6654 7.18945 25.0566V26.9669C7.18945 27.3575 7.5029 27.6741 7.8896 27.6741C8.2763 27.6741 8.58975 27.358 8.58975 26.9669V25.0561C8.58926 24.6654 8.27581 24.3493 7.8896 24.3493V24.3493Z" fill="#127D87"/>
<path d="M4.06148 29.9921C3.67478 29.9921 3.36133 30.3083 3.36133 30.6994V32.6092C3.36133 32.9998 3.67478 33.3165 4.06148 33.3165C4.44817 33.3165 4.76163 33.0003 4.76163 32.6092V30.6994C4.76163 30.3083 4.44817 29.9921 4.06148 29.9921Z" fill="#127D87"/>
<path d="M7.8896 29.9921C7.5029 29.9921 7.18945 30.3083 7.18945 30.6994V32.6092C7.18945 32.9998 7.5029 33.3165 7.8896 33.3165C8.2763 33.3165 8.58975 33.0003 8.58975 32.6092V30.6994C8.58926 30.3083 8.27581 29.9921 7.8896 29.9921Z" fill="#127D87"/>
<path d="M28.1376 27.6738C28.5243 27.6738 28.8378 27.3577 28.8378 26.9665V25.0558C28.8378 24.6651 28.5243 24.3485 28.1376 24.3485C27.751 24.3485 27.4375 24.6646 27.4375 25.0558V26.9665C27.4375 27.3572 27.751 27.6738 28.1376 27.6738Z" fill="#127D87"/>
<path d="M31.9658 27.6738C32.3525 27.6738 32.6659 27.3577 32.6659 26.9665V25.0558C32.6659 24.6651 32.3525 24.3485 31.9658 24.3485C31.5791 24.3485 31.2656 24.6646 31.2656 25.0558V26.9665C31.2656 27.3572 31.5791 27.6738 31.9658 27.6738Z" fill="#127D87"/>
<path d="M28.1376 33.3167C28.5243 33.3167 28.8378 33.0005 28.8378 32.6094V30.6996C28.8378 30.309 28.5243 29.9923 28.1376 29.9923C27.751 29.9923 27.4375 30.3085 27.4375 30.6996V32.6094C27.4375 33.0005 27.751 33.3167 28.1376 33.3167Z" fill="#127D87"/>
<path d="M31.9658 33.3167C32.3525 33.3167 32.6659 33.0005 32.6659 32.6094V30.6996C32.6659 30.309 32.3525 29.9923 31.9658 29.9923C31.5791 29.9923 31.2656 30.3085 31.2656 30.6996V32.6094C31.2656 33.0005 31.5791 33.3167 31.9658 33.3167Z" fill="#127D87"/>
</svg>
