<svg width="46" height="30" viewBox="0 0 46 30" fill="none" xmlns="http://www.w3.org/2000/svg">
<path d="M39.071 6.42924H19.7855C19.1961 6.42924 18.714 6.91138 18.714 7.50078V16.072H5.85697V1.07154C5.85697 0.482138 5.37483 0 4.78543 0L1.57154 0.000358734C0.982138 0.000358734 0.5 0.482497 0.5 1.0719V28.9285C0.5 29.5179 0.982138 30 1.57154 30H4.78579C5.3752 30 5.85733 29.5179 5.85733 28.9285V23.5715H40.1424V28.9285C40.1424 29.5179 40.6245 30 41.2139 30H44.4282C45.0176 30 45.4997 29.5179 45.4997 28.9285L45.4994 12.8572C45.4994 9.31077 42.6173 6.42868 39.0709 6.42868L39.071 6.42924ZM18.7138 21.4288H4.78598C4.19658 21.4288 3.71444 21.9109 3.71444 22.5003V27.8573H2.6429V2.14326H3.71444V17.1428C3.71444 17.7322 4.19658 18.2143 4.78598 18.2143H18.7147L18.7138 21.4288ZM43.357 27.8573H42.2855V22.5003C42.2855 21.9109 41.8033 21.4288 41.2139 21.4288H20.8576V8.57177H39.0714C41.4394 8.57177 43.3572 10.4896 43.3572 12.8576L43.357 27.8573Z" fill="black"/>
<path d="M6.92773 9.64348C6.92773 12.6005 9.32768 15.0004 12.2847 15.0004C15.2417 15.0004 17.6417 12.6005 17.6417 9.64348C17.6417 6.68646 15.2417 4.28651 12.2847 4.28651C9.32768 4.28616 6.92773 6.68609 6.92773 9.64348V9.64348ZM15.499 9.64348C15.499 11.4113 14.0525 12.8577 12.2847 12.8577C10.5169 12.8577 9.07045 11.4113 9.07045 9.64348C9.07045 7.87564 10.5169 6.42923 12.2847 6.42923C14.0525 6.42923 15.499 7.87564 15.499 9.64348V9.64348Z" fill="black"/>
</svg>
