<svg width="36" height="37" viewBox="0 0 36 37" fill="none" xmlns="http://www.w3.org/2000/svg">
<path d="M18.0018 8.255C12.6241 8.255 8.25195 12.6276 8.25195 18.0048C8.25195 23.3825 12.6246 27.7547 18.0018 27.7547C23.3795 27.7547 27.7516 23.3821 27.7516 18.0048C27.7516 12.6271 23.3793 8.255 18.0018 8.255V8.255ZM18.0018 26.2552C13.4493 26.2552 9.75143 22.5578 9.75143 18.0048C9.75143 13.4524 13.4489 9.75448 18.0018 9.75448C22.5542 9.75448 26.2521 13.4519 26.2521 18.0048C26.2521 22.5573 22.5544 26.2552 18.0018 26.2552Z" fill="#FF0606"/>
<path d="M35.5126 0.0495865C35.22 -0.062786 34.8901 0.0194523 34.6876 0.259586L32.7528 2.46469C30.8028 4.69213 29.5052 7.2946 28.8903 10.0472C26.385 6.58962 22.3725 4.50466 18.0002 4.50466C15.3 4.50466 12.705 5.3145 10.5002 6.7996V6.75471V0.754544C10.5002 0.342082 10.1628 0.00464329 9.75029 0.00464329C9.33783 0.00464329 9.00039 0.342082 9.00039 0.754544V6.75471C9.00039 8.56212 7.71024 10.0774 6.00047 10.4298L6.00015 0.754704C6.00015 0.342243 5.66271 0.00480391 5.25025 0.00480391C4.83779 0.00480391 4.50035 0.342243 4.50035 0.754704V10.4298C2.79025 10.0848 1.50043 8.56968 1.50043 6.75471L1.50011 0.754865C1.50011 0.342404 1.16267 0.00496485 0.750213 0.00496485C0.337438 0.00496485 0 0.342404 0 0.754865V6.75503C0 8.83245 1.21509 10.6251 2.97011 11.4802L2.31752 32.9831C2.29492 33.7858 2.58747 34.5357 3.14247 35.1133C3.69744 35.6905 4.44764 36.0057 5.25002 36.0057C6.05266 36.0057 6.79506 35.6905 7.35757 35.1133C7.92007 34.5357 8.21265 33.7783 8.18252 32.9831L8.00266 27.0731C10.5302 29.878 14.1227 31.5056 18 31.5056C23.1749 31.5056 27.7426 28.5807 29.9998 24.1705V35.2558C29.9998 35.6683 30.3373 36.0057 30.7497 36.0057H35.2498C35.6622 36.0057 35.9997 35.6683 35.9997 35.2558L36 20.2554V0.754945C36 0.440103 35.8051 0.162619 35.5125 0.0499329L35.5126 0.0495865ZM6.27754 34.0699C5.7301 34.6324 4.76263 34.6324 4.22247 34.0699C3.95251 33.7849 3.80247 33.4173 3.81753 33.0274L4.45506 11.9375C4.71748 11.9749 4.9799 12.0047 5.24985 12.0047C5.5198 12.0047 5.78222 11.9745 6.04495 11.9372L6.68248 33.0271C6.69755 33.4173 6.5475 33.7849 6.27755 34.0699L6.27754 34.0699ZM18.0002 30.0046C13.89 30.0046 10.1402 27.9495 7.92729 24.507L7.55218 12.1166C7.74711 11.7716 7.96464 11.4267 8.20477 11.0968C8.92485 10.6018 9.51718 9.93442 9.91487 9.16194C12.1275 7.12189 14.9925 6.00443 17.9997 6.00443C22.4398 6.00443 26.4678 8.42706 28.5523 12.3345C28.3872 14.3745 28.5972 16.4519 29.2049 18.4771L29.7599 20.3372C28.6647 25.9469 23.7521 30.0043 17.9995 30.0043L18.0002 30.0046ZM34.5001 34.5047H31.5001V21.0045H34.5001V34.5047ZM34.5001 19.5051H31.0801L30.6375 18.0426C29.1151 12.965 30.3223 7.51974 33.8775 3.46247L34.5 2.74992L34.5001 19.5051Z" fill="#FF0606"/>
</svg>
